<svg width="46" height="46" viewBox="0 0 46 46" fill="none" xmlns="http://www.w3.org/2000/svg">
<rect width="46" height="46" rx="23" fill="#1AB889"/>
<path d="M31 32C31 28.517 27.4144 25.7 23 25.7C18.5856 25.7 15 28.517 15 32M23 23C24.235 23 25.4194 22.5259 26.2927 21.682C27.166 20.8381 27.6566 19.6935 27.6566 18.5C27.6566 17.3065 27.166 16.1619 26.2927 15.318C25.4194 14.4741 24.235 14 23 14C21.765 14 20.5806 14.4741 19.7073 15.318C18.834 16.1619 18.3434 17.3065 18.3434 18.5C18.3434 19.6935 18.834 20.8381 19.7073 21.682C20.5806 22.5259 21.765 23 23 23Z" stroke="white" stroke-width="1.5" stroke-linecap="round" stroke-linejoin="round"/>
</svg>
