<svg width="24" height="24" viewBox="0 0 24 24" fill="none" xmlns="http://www.w3.org/2000/svg">
<path d="M12 21C16.9706 21 21 16.9706 21 12C21 7.02944 16.9706 3 12 3C7.02944 3 3 7.02944 3 12C3 16.9706 7.02944 21 12 21Z" stroke="white" stroke-width="1.5" stroke-linecap="round" stroke-linejoin="round"/>
<path d="M13.0398 6.10791L12.8182 14.2556H11.1876L10.9603 6.10791H13.0398ZM12.0001 17.892C11.6251 17.892 11.3031 17.7594 11.0342 17.4943C10.7652 17.2253 10.6326 16.9034 10.6364 16.5284C10.6326 16.1572 10.7652 15.839 11.0342 15.5738C11.3031 15.3087 11.6251 15.1761 12.0001 15.1761C12.3599 15.1761 12.6762 15.3087 12.9489 15.5738C13.2217 15.839 13.3599 16.1572 13.3637 16.5284C13.3599 16.7784 13.2936 17.0075 13.1648 17.2159C13.0398 17.4204 12.8751 17.5852 12.6705 17.7102C12.466 17.8314 12.2425 17.892 12.0001 17.892Z" fill="white"/>
</svg>
